<svg xmlns="http://www.w3.org/2000/svg" xmlns:xlink="http://www.w3.org/1999/xlink" width="1920" zoomAndPan="magnify" viewBox="0 0 1440 809.999993" height="1080" preserveAspectRatio="xMidYMid meet" version="1.0"><defs><g/><clipPath id="16c8a5d9d7"><path d="M 187.308594 99.597656 L 319.984375 99.597656 L 319.984375 232.273438 L 187.308594 232.273438 Z M 187.308594 99.597656 " clip-rule="nonzero"/></clipPath><clipPath id="f0fd6d4580"><path d="M 0.308594 0.597656 L 132.984375 0.597656 L 132.984375 133.273438 L 0.308594 133.273438 Z M 0.308594 0.597656 " clip-rule="nonzero"/></clipPath><clipPath id="cf00e15c87"><rect x="0" width="133" y="0" height="134"/></clipPath><clipPath id="a5843b60fd"><path d="M 0 158.808594 L 45.746094 158.808594 L 45.746094 232.296875 L 0 232.296875 Z M 0 158.808594 " clip-rule="nonzero"/></clipPath><clipPath id="35dd47d625"><path d="M 0 0.808594 L 45.746094 0.808594 L 45.746094 74.296875 L 0 74.296875 Z M 0 0.808594 " clip-rule="nonzero"/></clipPath><clipPath id="3802a7297e"><rect x="0" width="46" y="0" height="75"/></clipPath><clipPath id="114e78a920"><path d="M 319.976562 26.886719 L 450.253906 26.886719 L 450.253906 99.613281 L 319.976562 99.613281 Z M 319.976562 26.886719 " clip-rule="nonzero"/></clipPath><clipPath id="1a08272af5"><path d="M 0.976562 0.886719 L 131.253906 0.886719 L 131.253906 73.613281 L 0.976562 73.613281 Z M 0.976562 0.886719 " clip-rule="nonzero"/></clipPath><clipPath id="91e960a791"><rect x="0" width="132" y="0" height="74"/></clipPath><clipPath id="4f6243a960"><path d="M 104.929688 17.222656 L 187.308594 17.222656 L 187.308594 99.597656 L 104.929688 99.597656 Z M 104.929688 17.222656 " clip-rule="nonzero"/></clipPath><clipPath id="63468c4477"><path d="M 0.929688 0.222656 L 83.308594 0.222656 L 83.308594 82.597656 L 0.929688 82.597656 Z M 0.929688 0.222656 " clip-rule="nonzero"/></clipPath><clipPath id="eadca69334"><rect x="0" width="84" y="0" height="83"/></clipPath><clipPath id="e70ad41cec"><path d="M 104.929688 158.796875 L 146.117188 158.796875 L 146.117188 199.984375 L 104.929688 199.984375 Z M 104.929688 158.796875 " clip-rule="nonzero"/></clipPath><clipPath id="4371d883ca"><path d="M 0.929688 0.796875 L 42.117188 0.796875 L 42.117188 41.984375 L 0.929688 41.984375 Z M 0.929688 0.796875 " clip-rule="nonzero"/></clipPath><clipPath id="2e4a5a084f"><rect x="0" width="43" y="0" height="42"/></clipPath><clipPath id="24130c2ed1"><path d="M 45.746094 17.234375 L 86.933594 17.234375 L 86.933594 58.421875 L 45.746094 58.421875 Z M 45.746094 17.234375 " clip-rule="nonzero"/></clipPath><clipPath id="0a31fb56f3"><path d="M 0.746094 0.234375 L 41.933594 0.234375 L 41.933594 41.421875 L 0.746094 41.421875 Z M 0.746094 0.234375 " clip-rule="nonzero"/></clipPath><clipPath id="77405e7172"><rect x="0" width="42" y="0" height="42"/></clipPath><clipPath id="f8003539e6"><path d="M 45.746094 99.601562 L 104.929688 99.601562 L 104.929688 158.789062 L 45.746094 158.789062 Z M 45.746094 99.601562 " clip-rule="nonzero"/></clipPath><clipPath id="e477f2d008"><path d="M 0.746094 0.601562 L 59.929688 0.601562 L 59.929688 59.789062 L 0.746094 59.789062 Z M 0.746094 0.601562 " clip-rule="nonzero"/></clipPath><clipPath id="fc571c239a"><rect x="0" width="60" y="0" height="60"/></clipPath><clipPath id="50aae05ad0"><path d="M 4.558594 58.421875 L 45.746094 58.421875 L 45.746094 99.609375 L 4.558594 99.609375 Z M 4.558594 58.421875 " clip-rule="nonzero"/></clipPath><clipPath id="2faed96f03"><path d="M 0.558594 0.421875 L 41.746094 0.421875 L 41.746094 41.609375 L 0.558594 41.609375 Z M 0.558594 0.421875 " clip-rule="nonzero"/></clipPath><clipPath id="a54308e515"><rect x="0" width="42" y="0" height="42"/></clipPath><clipPath id="b9ae283e98"><path d="M 104.929688 232.273438 L 187.308594 232.273438 L 187.308594 314.648438 L 104.929688 314.648438 Z M 104.929688 232.273438 " clip-rule="nonzero"/></clipPath><clipPath id="126539eb2e"><path d="M 0.929688 0.273438 L 83.308594 0.273438 L 83.308594 82.648438 L 0.929688 82.648438 Z M 0.929688 0.273438 " clip-rule="nonzero"/></clipPath><clipPath id="f473b3ed15"><rect x="0" width="84" y="0" height="83"/></clipPath><clipPath id="f5bc969aa9"><path d="M 319 0.679688 L 1316.398438 0.679688 L 1316.398438 395.238281 L 319 395.238281 Z M 319 0.679688 " clip-rule="nonzero"/></clipPath><clipPath id="12017f394d"><rect x="0" width="998" y="0" height="396"/></clipPath><clipPath id="d5e9190770"><rect x="0" width="1317" y="0" height="396"/></clipPath></defs><g transform="matrix(1, 0, 0, 1, 0, 205)"><g clip-path="url(#d5e9190770)"><g clip-path="url(#16c8a5d9d7)"><g transform="matrix(1, 0, 0, 1, 187, 99)"><g clip-path="url(#cf00e15c87)"><g clip-path="url(#f0fd6d4580)"><path fill="#ffffff" d="M 0.308594 133.273438 L 0.308594 0.597656 L 132.984375 0.597656 L 132.984375 133.273438 Z M 0.308594 133.273438 " fill-opacity="1" fill-rule="nonzero"/></g></g></g></g><g clip-path="url(#a5843b60fd)"><g transform="matrix(1, 0, 0, 1, 0, 158)"><g clip-path="url(#3802a7297e)"><g clip-path="url(#35dd47d625)"><path fill="#ffffff" d="M 0 74.296875 L 0 0.855469 L 45.746094 0.855469 L 45.746094 74.296875 Z M 0 74.296875 " fill-opacity="1" fill-rule="nonzero"/></g></g></g></g><g clip-path="url(#114e78a920)"><g transform="matrix(1, 0, 0, 1, 319, 26)"><g clip-path="url(#91e960a791)"><g clip-path="url(#1a08272af5)"><path fill="#ffffff" d="M 0.976562 73.613281 L 0.976562 0.886719 L 131.371094 0.886719 L 131.371094 73.613281 Z M 0.976562 73.613281 " fill-opacity="1" fill-rule="nonzero"/></g></g></g></g><g clip-path="url(#4f6243a960)"><g transform="matrix(1, 0, 0, 1, 104, 17)"><g clip-path="url(#eadca69334)"><g clip-path="url(#63468c4477)"><path fill="#ffffff" d="M 0.929688 82.597656 L 0.929688 0.222656 L 83.308594 0.222656 L 83.308594 82.597656 Z M 0.929688 82.597656 " fill-opacity="1" fill-rule="nonzero"/></g></g></g></g><g clip-path="url(#e70ad41cec)"><g transform="matrix(1, 0, 0, 1, 104, 158)"><g clip-path="url(#2e4a5a084f)"><g clip-path="url(#4371d883ca)"><path fill="#ffffff" d="M 0.929688 41.984375 L 0.929688 0.796875 L 42.117188 0.796875 L 42.117188 41.984375 Z M 0.929688 41.984375 " fill-opacity="1" fill-rule="nonzero"/></g></g></g></g><g clip-path="url(#24130c2ed1)"><g transform="matrix(1, 0, 0, 1, 45, 17)"><g clip-path="url(#77405e7172)"><g clip-path="url(#0a31fb56f3)"><path fill="#ffffff" d="M 0.746094 41.421875 L 0.746094 0.234375 L 41.933594 0.234375 L 41.933594 41.421875 Z M 0.746094 41.421875 " fill-opacity="1" fill-rule="nonzero"/></g></g></g></g><g clip-path="url(#f8003539e6)"><g transform="matrix(1, 0, 0, 1, 45, 99)"><g clip-path="url(#fc571c239a)"><g clip-path="url(#e477f2d008)"><path fill="#ffffff" d="M 0.746094 59.789062 L 0.746094 0.601562 L 59.929688 0.601562 L 59.929688 59.789062 Z M 0.746094 59.789062 " fill-opacity="1" fill-rule="nonzero"/></g></g></g></g><g clip-path="url(#50aae05ad0)"><g transform="matrix(1, 0, 0, 1, 4, 58)"><g clip-path="url(#a54308e515)"><g clip-path="url(#2faed96f03)"><path fill="#ffffff" d="M 0.558594 41.609375 L 0.558594 0.421875 L 41.746094 0.421875 L 41.746094 41.609375 Z M 0.558594 41.609375 " fill-opacity="1" fill-rule="nonzero"/></g></g></g></g><g clip-path="url(#b9ae283e98)"><g transform="matrix(1, 0, 0, 1, 104, 232)"><g clip-path="url(#f473b3ed15)"><g clip-path="url(#126539eb2e)"><path fill="#ffffff" d="M 0.929688 82.648438 L 0.929688 0.273438 L 83.308594 0.273438 L 83.308594 82.648438 Z M 0.929688 82.648438 " fill-opacity="1" fill-rule="nonzero"/></g></g></g></g><g clip-path="url(#f5bc969aa9)"><g transform="matrix(1, 0, 0, 1, 319, 0.000000000000056843)"><g clip-path="url(#12017f394d)"><g fill="#ffffff" fill-opacity="1"><g transform="translate(0.983857, 316.2437)"><g><path d="M 93.84375 -76.78125 L 52.171875 -86.625 C 35.546875 -90.5625 24.222656 -96.578125 18.203125 -104.671875 C 12.191406 -112.765625 9.1875 -124.359375 9.1875 -139.453125 C 9.1875 -163.304688 15.472656 -180.863281 28.046875 -192.125 C 40.628906 -203.394531 60.15625 -209.03125 86.625 -209.03125 C 97.5625 -209.03125 107.296875 -208.59375 115.828125 -207.71875 C 124.359375 -206.84375 132.234375 -205.3125 139.453125 -203.125 L 139.453125 -157.5 C 122.828125 -160.34375 111.394531 -161.984375 105.15625 -162.421875 C 98.925781 -162.867188 92.421875 -163.09375 85.640625 -163.09375 C 76.453125 -163.09375 69.78125 -161.554688 65.625 -158.484375 C 61.46875 -155.421875 59.390625 -150.28125 59.390625 -143.0625 C 59.390625 -139.5625 60.046875 -136.878906 61.359375 -135.015625 C 62.671875 -133.160156 65.1875 -131.796875 68.90625 -130.921875 L 108.28125 -121.734375 C 119.65625 -119.109375 127.859375 -116.535156 132.890625 -114.015625 C 137.921875 -111.503906 141.96875 -108.28125 145.03125 -104.34375 C 148.53125 -100.1875 151.097656 -94.828125 152.734375 -88.265625 C 154.378906 -81.703125 155.203125 -73.71875 155.203125 -64.3125 C 155.203125 -40.46875 148.859375 -23.238281 136.171875 -12.625 C 123.484375 -2.019531 103.796875 3.28125 77.109375 3.28125 C 63.546875 3.28125 50.640625 2.457031 38.390625 0.8125 C 26.140625 -0.820312 16.625 -2.84375 9.84375 -5.25 L 9.84375 -53.484375 C 18.59375 -50.640625 28.984375 -48.394531 41.015625 -46.75 C 53.046875 -45.113281 65.078125 -44.296875 77.109375 -44.296875 C 86.734375 -44.296875 93.40625 -45.5 97.125 -47.90625 C 100.84375 -50.3125 102.703125 -55.125 102.703125 -62.34375 C 102.703125 -66.9375 102.097656 -70.269531 100.890625 -72.34375 C 99.691406 -74.425781 97.34375 -75.90625 93.84375 -76.78125 Z M 93.84375 -76.78125 "/></g></g></g><g fill="#ffffff" fill-opacity="1"><g transform="translate(148.62777, 316.2437)"><g><path d="M 24.609375 -121.078125 L 5.578125 -121.078125 L 5.578125 -162.09375 L 26.25 -162.09375 L 32.484375 -199.84375 L 73.828125 -199.84375 L 73.828125 -162.09375 L 119.765625 -162.09375 L 119.765625 -121.078125 L 73.828125 -121.078125 L 73.828125 -58.078125 C 73.828125 -51.953125 75.410156 -47.847656 78.578125 -45.765625 C 81.753906 -43.691406 88.046875 -42.65625 97.453125 -42.65625 C 100.734375 -42.65625 104.78125 -42.925781 109.59375 -43.46875 C 114.40625 -44.019531 118.453125 -44.625 121.734375 -45.28125 L 121.734375 -3.28125 C 118.234375 -1.75 112.816406 -0.273438 105.484375 1.140625 C 98.160156 2.566406 91.65625 3.28125 85.96875 3.28125 C 64.09375 3.28125 48.394531 -1.363281 38.875 -10.65625 C 29.363281 -19.957031 24.609375 -35.109375 24.609375 -56.109375 Z M 24.609375 -121.078125 "/></g></g></g><g fill="#ffffff" fill-opacity="1"><g transform="translate(260.836581, 316.2437)"><g><path d="M 148.3125 -47.90625 L 148.3125 -8.859375 C 143.0625 -5.578125 134.203125 -2.734375 121.734375 -0.328125 C 109.265625 2.078125 96.140625 3.28125 82.359375 3.28125 C 56.109375 3.28125 37.1875 -3.332031 25.59375 -16.5625 C 14 -29.800781 8.203125 -51.296875 8.203125 -81.046875 C 8.203125 -110.140625 14.328125 -131.46875 26.578125 -145.03125 C 38.828125 -158.601562 58.1875 -165.390625 84.65625 -165.390625 C 110.46875 -165.390625 128.675781 -160.300781 139.28125 -150.125 C 149.894531 -139.945312 155.203125 -121.953125 155.203125 -96.140625 C 155.203125 -89.140625 155.09375 -83.5625 154.875 -79.40625 C 154.65625 -75.25 154.21875 -70.4375 153.5625 -64.96875 L 57.75 -64.96875 C 57.96875 -56 60.375 -49.765625 64.96875 -46.265625 C 69.5625 -42.765625 77.984375 -41.015625 90.234375 -41.015625 C 100.734375 -41.015625 111.453125 -41.722656 122.390625 -43.140625 C 133.328125 -44.566406 141.96875 -46.15625 148.3125 -47.90625 Z M 84.65625 -123.375 C 74.15625 -123.375 67.046875 -121.566406 63.328125 -117.953125 C 59.609375 -114.347656 57.75 -107.296875 57.75 -96.796875 L 110.578125 -96.796875 L 110.578125 -104.015625 C 110.359375 -111.671875 108.550781 -116.8125 105.15625 -119.4375 C 101.769531 -122.0625 94.9375 -123.375 84.65625 -123.375 Z M 84.65625 -123.375 "/></g></g></g><g fill="#ffffff" fill-opacity="1"><g transform="translate(411.761525, 316.2437)"><g><path d="M 63.328125 49.875 L 14.109375 49.875 L 14.109375 -162.09375 L 57.421875 -162.09375 L 60.046875 -147 L 60.703125 -147 C 66.609375 -153.125 73.660156 -157.71875 81.859375 -160.78125 C 90.066406 -163.851562 99.421875 -165.390625 109.921875 -165.390625 C 131.359375 -165.390625 146.617188 -158.929688 155.703125 -146.015625 C 164.785156 -133.109375 169.328125 -111.453125 169.328125 -81.046875 C 169.328125 -51.515625 163.582031 -30.078125 152.09375 -16.734375 C 140.601562 -3.390625 121.953125 3.28125 96.140625 3.28125 C 89.796875 3.28125 83.832031 2.894531 78.25 2.125 C 72.675781 1.363281 67.703125 0.328125 63.328125 -0.984375 Z M 120.09375 -81.046875 C 120.09375 -97.453125 118.34375 -108.222656 114.84375 -113.359375 C 111.34375 -118.503906 103.796875 -121.078125 92.203125 -121.078125 C 86.515625 -121.078125 81.207031 -120.640625 76.28125 -119.765625 C 71.363281 -118.890625 67.046875 -117.578125 63.328125 -115.828125 L 63.328125 -46.59375 C 66.609375 -45.0625 70.378906 -43.96875 74.640625 -43.3125 C 78.910156 -42.65625 83.78125 -42.328125 89.25 -42.328125 C 102.59375 -42.328125 111.066406 -44.675781 114.671875 -49.375 C 118.285156 -54.082031 120.09375 -64.640625 120.09375 -81.046875 Z M 120.09375 -81.046875 "/></g></g></g><g fill="#ffffff" fill-opacity="1"><g transform="translate(576.466768, 316.2437)"><g><path d="M 168.34375 -81.046875 C 168.34375 -50.640625 162.210938 -28.984375 149.953125 -16.078125 C 137.703125 -3.171875 117.140625 3.28125 88.265625 3.28125 C 59.390625 3.28125 38.828125 -3.171875 26.578125 -16.078125 C 14.328125 -28.984375 8.203125 -50.640625 8.203125 -81.046875 C 8.203125 -111.453125 14.328125 -133.109375 26.578125 -146.015625 C 38.828125 -158.929688 59.390625 -165.390625 88.265625 -165.390625 C 117.140625 -165.390625 137.703125 -158.929688 149.953125 -146.015625 C 162.210938 -133.109375 168.34375 -111.453125 168.34375 -81.046875 Z M 57.421875 -81.703125 C 57.421875 -65.078125 59.222656 -54.359375 62.828125 -49.546875 C 66.441406 -44.734375 74.921875 -42.328125 88.265625 -42.328125 C 101.609375 -42.328125 110.082031 -44.734375 113.6875 -49.546875 C 117.300781 -54.359375 119.109375 -65.078125 119.109375 -81.703125 C 119.109375 -98.328125 117.300781 -109.046875 113.6875 -113.859375 C 110.082031 -118.671875 101.609375 -121.078125 88.265625 -121.078125 C 74.921875 -121.078125 66.441406 -118.671875 62.828125 -113.859375 C 59.222656 -109.046875 57.421875 -98.328125 57.421875 -81.703125 Z M 57.421875 -81.703125 "/></g></g></g><g fill="#ffffff" fill-opacity="1"><g transform="translate(740.187713, 316.2437)"><g><path d="M 63.328125 0 L 14.109375 0 L 14.109375 -162.09375 L 60.046875 -162.09375 L 61.6875 -149.625 L 62.34375 -149.625 C 70.21875 -154.4375 78.253906 -158.101562 86.453125 -160.625 C 94.660156 -163.144531 102.375 -164.40625 109.59375 -164.40625 L 112.21875 -164.40625 L 112.21875 -116.8125 C 110.25 -117.25 108.113281 -117.519531 105.8125 -117.625 C 103.519531 -117.738281 100.625 -117.796875 97.125 -117.796875 C 90.78125 -117.796875 84.765625 -117.410156 79.078125 -116.640625 C 73.390625 -115.878906 68.140625 -114.734375 63.328125 -113.203125 Z M 63.328125 0 "/></g></g></g><g fill="#ffffff" fill-opacity="1"><g transform="translate(843.865857, 316.2437)"><g><path d="M 53.484375 3.28125 C 36.859375 3.28125 24.660156 -0.875 16.890625 -9.1875 C 9.128906 -17.5 5.25 -30.625 5.25 -48.5625 C 5.25 -66.9375 9.894531 -79.84375 19.1875 -87.28125 C 28.488281 -94.71875 44.515625 -98.4375 67.265625 -98.4375 C 72.515625 -98.4375 77.925781 -98.160156 83.5 -97.609375 C 89.082031 -97.066406 93.953125 -96.359375 98.109375 -95.484375 L 98.109375 -107.296875 C 98.109375 -112.546875 95.863281 -116.425781 91.375 -118.9375 C 86.894531 -121.457031 80.0625 -122.71875 70.875 -122.71875 C 60.375 -122.71875 51.019531 -122.441406 42.8125 -121.890625 C 34.613281 -121.347656 27.125 -120.421875 20.34375 -119.109375 L 20.34375 -159.46875 C 28.4375 -161.4375 37.84375 -162.914062 48.5625 -163.90625 C 59.28125 -164.894531 71.75 -165.390625 85.96875 -165.390625 C 106.09375 -165.390625 121.347656 -160.898438 131.734375 -151.921875 C 142.128906 -142.953125 147.328125 -129.71875 147.328125 -112.21875 L 147.328125 0 L 101.390625 0 L 99.75 -13.78125 L 98.765625 -13.78125 C 91.984375 -8.53125 84.546875 -4.375 76.453125 -1.3125 C 68.359375 1.75 60.703125 3.28125 53.484375 3.28125 Z M 73.828125 -65.953125 C 65.078125 -65.953125 59.171875 -65.019531 56.109375 -63.15625 C 53.046875 -61.300781 51.515625 -57.421875 51.515625 -51.515625 C 51.515625 -46.046875 52.769531 -42.269531 55.28125 -40.1875 C 57.800781 -38.113281 62.234375 -37.078125 68.578125 -37.078125 C 73.390625 -37.078125 78.421875 -37.734375 83.671875 -39.046875 C 88.921875 -40.359375 93.734375 -42 98.109375 -43.96875 L 98.109375 -63.984375 C 95.484375 -64.640625 92.203125 -65.128906 88.265625 -65.453125 C 84.328125 -65.785156 79.515625 -65.953125 73.828125 -65.953125 Z M 73.828125 -65.953125 "/></g></g></g></g></g></g></g></g></svg>