<svg xmlns="http://www.w3.org/2000/svg" xmlns:xlink="http://www.w3.org/1999/xlink" width="1920" zoomAndPan="magnify" viewBox="0 0 1440 809.999993" height="1080" preserveAspectRatio="xMidYMid meet" version="1.0"><defs><g/><clipPath id="10c4824ff0"><path d="M 717.769531 264.222656 L 817 264.222656 L 817 327.203125 L 717.769531 327.203125 Z M 717.769531 264.222656 " clip-rule="nonzero"/></clipPath><clipPath id="5162f7e26b"><path d="M 663.925781 66.640625 L 852.457031 66.640625 L 852.457031 327.203125 L 663.925781 327.203125 Z M 663.925781 66.640625 " clip-rule="nonzero"/></clipPath><clipPath id="bc96529ea5"><path d="M 690.847656 228.296875 L 825.980469 228.296875 L 825.980469 327.203125 L 690.847656 327.203125 Z M 690.847656 228.296875 " clip-rule="nonzero"/></clipPath><clipPath id="09f919f3ee"><path d="M 0.160156 0.679688 L 1151.679688 0.679688 L 1151.679688 421 L 0.160156 421 Z M 0.160156 0.679688 " clip-rule="nonzero"/></clipPath><clipPath id="4596f48f21"><rect x="0" width="1152" y="0" height="421"/></clipPath><clipPath id="1872047008"><path d="M 472 397 L 664 397 L 664 457.640625 L 472 457.640625 Z M 472 397 " clip-rule="nonzero"/></clipPath><clipPath id="f3e16ecb21"><rect x="0" width="192" y="0" height="61"/></clipPath><clipPath id="522e310496"><rect x="0" width="1152" y="0" height="458"/></clipPath></defs><g transform="matrix(1, 0, 0, 1, 152, 163)"><g clip-path="url(#522e310496)"><g clip-path="url(#10c4824ff0)"><path fill="#fcf7db" d="M 807.570312 273.292969 L 807.570312 282.277344 L 798.59375 282.277344 L 798.59375 291.261719 L 780.636719 291.261719 L 780.636719 300.25 L 771.660156 300.25 L 771.660156 309.234375 L 762.683594 309.234375 L 762.683594 300.25 L 753.703125 300.25 L 753.703125 291.261719 L 762.683594 291.261719 L 762.683594 264.308594 L 753.703125 264.308594 L 753.703125 282.277344 L 744.726562 282.277344 L 744.726562 300.25 L 735.75 300.25 L 735.75 291.261719 L 726.773438 291.261719 L 726.773438 282.277344 L 717.792969 282.277344 L 717.792969 300.25 L 726.773438 300.25 L 726.773438 309.234375 L 735.75 309.234375 L 735.75 318.21875 L 744.726562 318.21875 L 744.726562 327.203125 L 780.636719 327.203125 L 780.636719 318.21875 L 789.617188 318.21875 L 789.617188 309.234375 L 798.59375 309.234375 L 798.59375 300.25 L 807.570312 300.25 L 807.570312 291.261719 L 816.546875 291.261719 L 816.546875 273.292969 L 807.570312 273.292969 " fill-opacity="1" fill-rule="nonzero"/></g><path fill="#e2902a" d="M 825.527344 255.324219 L 825.527344 237.351562 L 807.570312 237.351562 L 807.570312 210.398438 L 798.59375 210.398438 L 798.59375 219.382812 L 789.617188 219.382812 L 789.617188 210.398438 L 780.636719 210.398438 L 780.636719 192.429688 L 771.660156 192.429688 L 771.660156 183.441406 L 780.636719 183.441406 L 780.636719 174.457031 L 789.617188 174.457031 L 789.617188 156.488281 L 780.636719 156.488281 L 780.636719 138.519531 L 771.660156 138.519531 L 771.660156 147.503906 L 762.683594 147.503906 L 762.683594 165.472656 L 753.703125 165.472656 L 753.703125 210.398438 L 762.683594 210.398438 L 762.683594 228.367188 L 753.703125 228.367188 L 753.703125 237.351562 L 735.75 237.351562 L 735.75 246.339844 L 726.773438 246.339844 L 726.773438 264.308594 L 735.75 264.308594 L 735.75 282.277344 L 744.726562 282.277344 L 744.726562 273.292969 L 753.703125 273.292969 L 753.703125 255.324219 L 762.683594 255.324219 L 762.683594 273.292969 L 780.636719 273.292969 L 780.636719 246.339844 L 771.660156 246.339844 L 771.660156 228.367188 L 780.636719 228.367188 L 780.636719 246.339844 L 789.617188 246.339844 L 789.617188 282.277344 L 798.59375 282.277344 L 798.59375 264.308594 L 807.570312 264.308594 L 807.570312 255.324219 L 816.546875 255.324219 L 816.546875 264.308594 L 825.527344 264.308594 L 825.527344 282.277344 L 834.503906 282.277344 L 834.503906 255.324219 Z M 690.859375 282.277344 L 690.859375 291.261719 L 699.839844 291.261719 L 699.839844 300.25 L 708.816406 300.25 L 708.816406 282.277344 L 699.839844 282.277344 L 699.839844 273.292969 L 690.859375 273.292969 Z M 726.773438 237.351562 L 726.773438 246.339844 L 717.792969 246.339844 L 717.792969 273.292969 L 699.839844 273.292969 L 699.839844 264.308594 L 690.859375 264.308594 L 690.859375 255.324219 L 699.839844 255.324219 L 699.839844 237.351562 L 708.816406 237.351562 L 708.816406 219.382812 L 717.792969 219.382812 L 717.792969 237.351562 L 726.773438 237.351562 " fill-opacity="1" fill-rule="nonzero"/><g clip-path="url(#5162f7e26b)"><path fill="#d75623" d="M 663.925781 201.414062 L 663.925781 210.398438 L 672.90625 210.398438 L 672.90625 201.414062 Z M 699.839844 102.578125 L 690.859375 102.578125 L 690.859375 111.5625 L 699.839844 111.5625 Z M 699.839844 129.535156 L 699.839844 120.546875 L 690.859375 120.546875 L 690.859375 138.519531 L 699.839844 138.519531 Z M 708.816406 147.503906 L 708.816406 138.519531 L 699.839844 138.519531 L 699.839844 147.503906 Z M 780.636719 75.625 L 780.636719 66.640625 L 771.660156 66.640625 L 771.660156 84.609375 L 780.636719 84.609375 Z M 789.617188 192.429688 L 789.617188 183.441406 L 798.59375 183.441406 L 798.59375 138.519531 L 789.617188 138.519531 L 789.617188 129.535156 L 780.636719 129.535156 L 780.636719 111.5625 L 771.660156 111.5625 L 771.660156 84.609375 L 762.683594 84.609375 L 762.683594 138.519531 L 753.703125 138.519531 L 753.703125 120.546875 L 744.726562 120.546875 L 744.726562 111.5625 L 735.75 111.5625 L 735.75 129.535156 L 744.726562 129.535156 L 744.726562 147.503906 L 753.703125 147.503906 L 753.703125 156.488281 L 744.726562 156.488281 L 744.726562 165.472656 L 735.75 165.472656 L 735.75 183.441406 L 744.726562 183.441406 L 744.726562 228.367188 L 735.75 228.367188 L 735.75 219.382812 L 726.773438 219.382812 L 726.773438 183.441406 L 717.792969 183.441406 L 717.792969 174.457031 L 708.816406 174.457031 L 708.816406 210.398438 L 699.839844 210.398438 L 699.839844 228.367188 L 690.859375 228.367188 L 690.859375 219.382812 L 681.882812 219.382812 L 681.882812 210.398438 L 672.90625 210.398438 L 672.90625 228.367188 L 681.882812 228.367188 L 681.882812 264.308594 L 672.90625 264.308594 L 672.90625 291.261719 L 681.882812 291.261719 L 681.882812 300.25 L 690.859375 300.25 L 690.859375 309.234375 L 699.839844 309.234375 L 699.839844 318.21875 L 708.816406 318.21875 L 708.816406 327.203125 L 726.773438 327.203125 L 726.773438 318.21875 L 717.792969 318.21875 L 717.792969 309.234375 L 708.816406 309.234375 L 708.816406 300.25 L 699.839844 300.25 L 699.839844 291.261719 L 690.859375 291.261719 L 690.859375 255.324219 L 699.839844 255.324219 L 699.839844 237.351562 L 708.816406 237.351562 L 708.816406 219.382812 L 717.792969 219.382812 L 717.792969 237.351562 L 753.703125 237.351562 L 753.703125 228.367188 L 762.683594 228.367188 L 762.683594 210.398438 L 753.703125 210.398438 L 753.703125 165.472656 L 762.683594 165.472656 L 762.683594 147.503906 L 771.660156 147.503906 L 771.660156 138.519531 L 780.636719 138.519531 L 780.636719 156.488281 L 789.617188 156.488281 L 789.617188 174.457031 L 780.636719 174.457031 L 780.636719 183.441406 L 771.660156 183.441406 L 771.660156 192.429688 L 780.636719 192.429688 L 780.636719 210.398438 L 789.617188 210.398438 Z M 789.617188 219.382812 L 798.59375 219.382812 L 798.59375 210.398438 L 789.617188 210.398438 Z M 843.480469 129.535156 L 834.503906 129.535156 L 834.503906 138.519531 L 843.480469 138.519531 Z M 852.460938 255.324219 L 852.460938 291.261719 L 843.480469 291.261719 L 843.480469 300.25 L 834.503906 300.25 L 834.503906 309.234375 L 825.527344 309.234375 L 825.527344 318.21875 L 816.546875 318.21875 L 816.546875 327.203125 L 798.59375 327.203125 L 798.59375 318.21875 L 807.570312 318.21875 L 807.570312 309.234375 L 816.546875 309.234375 L 816.546875 300.25 L 825.527344 300.25 L 825.527344 282.277344 L 834.503906 282.277344 L 834.503906 255.324219 L 825.527344 255.324219 L 825.527344 237.351562 L 807.570312 237.351562 L 807.570312 210.398438 L 798.59375 210.398438 L 798.59375 192.429688 L 807.570312 192.429688 L 807.570312 174.457031 L 816.546875 174.457031 L 816.546875 156.488281 L 825.527344 156.488281 L 825.527344 147.503906 L 834.503906 147.503906 L 834.503906 165.472656 L 825.527344 165.472656 L 825.527344 210.398438 L 816.546875 210.398438 L 816.546875 228.367188 L 825.527344 228.367188 L 825.527344 210.398438 L 834.503906 210.398438 L 834.503906 192.429688 L 843.480469 192.429688 L 843.480469 219.382812 L 834.503906 219.382812 L 834.503906 246.339844 L 843.480469 246.339844 L 843.480469 255.324219 L 852.460938 255.324219 " fill-opacity="1" fill-rule="nonzero"/></g><g clip-path="url(#bc96529ea5)"><path fill="#f0c82f" d="M 690.859375 264.308594 L 690.859375 273.292969 L 699.839844 273.292969 L 699.839844 264.308594 Z M 735.75 237.351562 L 726.773438 237.351562 L 726.773438 246.339844 L 735.75 246.339844 Z M 735.75 273.292969 L 735.75 264.308594 L 726.773438 264.308594 L 726.773438 246.339844 L 717.792969 246.339844 L 717.792969 273.292969 L 699.839844 273.292969 L 699.839844 282.277344 L 708.816406 282.277344 L 708.816406 309.234375 L 717.792969 309.234375 L 717.792969 318.21875 L 726.773438 318.21875 L 726.773438 327.203125 L 744.726562 327.203125 L 744.726562 318.21875 L 735.75 318.21875 L 735.75 309.234375 L 726.773438 309.234375 L 726.773438 300.25 L 717.792969 300.25 L 717.792969 282.277344 L 726.773438 282.277344 L 726.773438 291.261719 L 735.75 291.261719 L 735.75 300.25 L 744.726562 300.25 L 744.726562 282.277344 L 735.75 282.277344 Z M 753.703125 273.292969 L 744.726562 273.292969 L 744.726562 282.277344 L 753.703125 282.277344 Z M 762.683594 255.324219 L 753.703125 255.324219 L 753.703125 264.308594 L 762.683594 264.308594 Z M 780.636719 228.367188 L 771.660156 228.367188 L 771.660156 246.339844 L 780.636719 246.339844 Z M 789.617188 273.292969 L 789.617188 246.339844 L 780.636719 246.339844 L 780.636719 273.292969 L 762.683594 273.292969 L 762.683594 291.261719 L 753.703125 291.261719 L 753.703125 300.25 L 762.683594 300.25 L 762.683594 309.234375 L 771.660156 309.234375 L 771.660156 300.25 L 780.636719 300.25 L 780.636719 291.261719 L 798.59375 291.261719 L 798.59375 282.277344 L 789.617188 282.277344 Z M 825.527344 264.308594 L 825.527344 300.25 L 816.546875 300.25 L 816.546875 309.234375 L 807.570312 309.234375 L 807.570312 318.21875 L 798.59375 318.21875 L 798.59375 327.203125 L 780.636719 327.203125 L 780.636719 318.21875 L 789.617188 318.21875 L 789.617188 309.234375 L 798.59375 309.234375 L 798.59375 300.25 L 807.570312 300.25 L 807.570312 291.261719 L 816.546875 291.261719 L 816.546875 273.292969 L 807.570312 273.292969 L 807.570312 282.277344 L 798.59375 282.277344 L 798.59375 264.308594 L 807.570312 264.308594 L 807.570312 255.324219 L 816.546875 255.324219 L 816.546875 264.308594 L 825.527344 264.308594 " fill-opacity="1" fill-rule="nonzero"/></g><g clip-path="url(#09f919f3ee)"><g transform="matrix(1, 0, 0, 1, 0, 0.000000000000028422)"><g clip-path="url(#4596f48f21)"><g fill="#d75623" fill-opacity="1"><g transform="translate(2.518458, 324.558233)"><g><path d="M 113.386719 0 C 115.660156 0 117.609375 -1.949219 117.609375 -4.222656 L 117.609375 -11.371094 C 117.609375 -13.644531 119.558594 -15.59375 121.832031 -15.59375 L 132.230469 -15.59375 C 134.503906 -15.59375 136.453125 -17.542969 136.453125 -19.816406 L 136.453125 -26.640625 C 136.453125 -28.914062 138.402344 -30.863281 140.675781 -30.863281 L 151.070312 -30.863281 C 153.347656 -30.863281 155.296875 -32.8125 155.296875 -35.085938 L 155.296875 -119.558594 C 155.296875 -121.832031 153.347656 -123.78125 151.070312 -123.78125 L 140.675781 -123.78125 C 138.402344 -123.78125 136.453125 -125.730469 136.453125 -128.003906 L 136.453125 -135.152344 C 136.453125 -137.425781 134.503906 -139.375 132.230469 -139.375 L 121.832031 -139.375 C 119.558594 -139.375 117.609375 -141.324219 117.609375 -143.597656 L 117.609375 -150.421875 C 117.609375 -152.695312 115.660156 -154.644531 113.386719 -154.644531 L 46.457031 -154.644531 C 44.183594 -154.644531 42.234375 -156.59375 42.234375 -158.871094 L 42.234375 -212.476562 C 42.234375 -214.75 40.285156 -216.699219 38.011719 -216.699219 L 8.773438 -216.699219 C 6.496094 -216.699219 4.546875 -214.75 4.546875 -212.476562 L 4.546875 -158.871094 C 4.546875 -156.59375 6.496094 -154.644531 8.773438 -154.644531 L 19.167969 -154.644531 C 21.441406 -154.644531 23.390625 -152.695312 23.390625 -150.421875 L 23.390625 -143.597656 C 23.390625 -141.324219 25.339844 -139.375 27.617188 -139.375 L 38.011719 -139.375 C 40.285156 -139.375 42.234375 -137.425781 42.234375 -135.152344 L 42.234375 -128.003906 C 42.234375 -125.730469 44.183594 -123.78125 46.457031 -123.78125 L 113.386719 -123.78125 C 115.660156 -123.78125 117.609375 -121.832031 117.609375 -119.558594 L 117.609375 -35.085938 C 117.609375 -32.8125 115.660156 -30.863281 113.386719 -30.863281 L 8.773438 -30.863281 C 6.496094 -30.863281 4.546875 -28.914062 4.546875 -26.640625 L 4.546875 -4.222656 C 4.546875 -1.949219 6.496094 0 8.773438 0 Z M 113.386719 0 "/></g></g></g><g fill="#d75623" fill-opacity="1"><g transform="translate(180.203464, 324.558233)"><g><path d="M 46.457031 0 L 113.386719 0 C 115.660156 0 117.609375 -1.949219 117.609375 -4.222656 L 117.609375 -26.640625 C 117.609375 -28.914062 115.660156 -30.863281 113.386719 -30.863281 L 46.457031 -30.863281 C 44.183594 -30.863281 42.234375 -32.8125 42.234375 -35.085938 L 42.234375 -119.558594 C 42.234375 -121.832031 44.183594 -123.78125 46.457031 -123.78125 L 113.386719 -123.78125 C 115.660156 -123.78125 117.609375 -125.730469 117.609375 -128.003906 L 117.609375 -150.421875 C 117.609375 -152.695312 115.660156 -154.644531 113.386719 -154.644531 L 46.457031 -154.644531 C 44.183594 -154.644531 42.234375 -156.59375 42.234375 -158.871094 L 42.234375 -212.476562 C 42.234375 -214.75 40.285156 -216.699219 38.011719 -216.699219 L 8.773438 -216.699219 C 6.496094 -216.699219 4.546875 -214.75 4.546875 -212.476562 L 4.546875 -35.085938 C 4.546875 -32.8125 6.496094 -30.863281 8.773438 -30.863281 L 19.167969 -30.863281 C 21.441406 -30.863281 23.390625 -28.914062 23.390625 -26.640625 L 23.390625 -19.492188 C 23.390625 -17.21875 25.339844 -15.269531 27.617188 -15.269531 L 38.011719 -15.269531 C 40.285156 -15.269531 42.234375 -13.320312 42.234375 -11.046875 L 42.234375 -4.222656 C 42.234375 -1.949219 44.183594 0 46.457031 0 Z M 46.457031 0 "/></g></g></g><g fill="#d75623" fill-opacity="1"><g transform="translate(320.208686, 324.558233)"><g><path d="M 151.070312 -61.726562 C 153.347656 -61.726562 155.296875 -63.675781 155.296875 -65.953125 L 155.296875 -88.367188 C 155.296875 -90.644531 153.347656 -92.59375 151.070312 -92.59375 L 46.457031 -92.59375 C 44.183594 -92.59375 42.234375 -94.542969 42.234375 -96.816406 L 42.234375 -119.558594 C 42.234375 -121.832031 44.183594 -123.78125 46.457031 -123.78125 L 151.070312 -123.78125 C 153.347656 -123.78125 155.296875 -125.730469 155.296875 -128.003906 L 155.296875 -150.421875 C 155.296875 -152.695312 153.347656 -154.644531 151.070312 -154.644531 L 46.457031 -154.644531 C 44.183594 -154.644531 42.234375 -152.695312 42.234375 -150.421875 L 42.234375 -143.597656 C 42.234375 -141.324219 40.285156 -139.375 38.011719 -139.375 L 27.617188 -139.375 C 25.339844 -139.375 23.390625 -137.425781 23.390625 -135.152344 L 23.390625 -128.003906 C 23.390625 -125.730469 21.441406 -123.78125 19.167969 -123.78125 L 8.773438 -123.78125 C 6.496094 -123.78125 4.546875 -121.832031 4.546875 -119.558594 L 4.546875 -35.085938 C 4.546875 -32.8125 6.496094 -30.863281 8.773438 -30.863281 L 19.167969 -30.863281 C 21.441406 -30.863281 23.390625 -28.914062 23.390625 -26.640625 L 23.390625 -19.816406 C 23.390625 -17.542969 25.339844 -15.59375 27.617188 -15.59375 L 38.011719 -15.59375 C 40.285156 -15.59375 42.234375 -13.644531 42.234375 -11.371094 L 42.234375 -4.222656 C 42.234375 -1.949219 44.183594 0 46.457031 0 L 151.070312 0 C 153.347656 0 155.296875 -1.949219 155.296875 -4.222656 L 155.296875 -26.640625 C 155.296875 -28.914062 153.347656 -30.863281 151.070312 -30.863281 L 46.457031 -30.863281 C 44.183594 -30.863281 42.234375 -32.8125 42.234375 -35.085938 L 42.234375 -57.503906 C 42.234375 -59.777344 44.183594 -61.726562 46.457031 -61.726562 Z M 151.070312 -61.726562 "/></g></g></g><g fill="#d75623" fill-opacity="1"><g transform="translate(497.893692, 324.558233)"><g><path d="M 42.234375 -119.558594 C 42.234375 -121.832031 44.183594 -123.78125 46.457031 -123.78125 L 113.386719 -123.78125 C 115.660156 -123.78125 117.609375 -121.832031 117.609375 -119.558594 L 117.609375 -35.085938 C 117.609375 -32.8125 115.660156 -30.863281 113.386719 -30.863281 L 46.457031 -30.863281 C 44.183594 -30.863281 42.234375 -32.8125 42.234375 -35.085938 Z M 4.546875 57.828125 C 4.546875 60.105469 6.496094 62.054688 8.773438 62.054688 L 38.011719 62.054688 C 40.285156 62.054688 42.234375 60.105469 42.234375 57.828125 L 42.234375 4.222656 C 42.234375 1.949219 44.183594 0 46.457031 0 L 113.386719 0 C 115.660156 0 117.609375 -1.949219 117.609375 -4.222656 L 117.609375 -11.371094 C 117.609375 -13.644531 119.558594 -15.59375 121.832031 -15.59375 L 132.230469 -15.59375 C 134.503906 -15.59375 136.453125 -17.542969 136.453125 -19.816406 L 136.453125 -26.640625 C 136.453125 -28.914062 138.402344 -30.863281 140.675781 -30.863281 L 151.070312 -30.863281 C 153.347656 -30.863281 155.296875 -32.8125 155.296875 -35.085938 L 155.296875 -119.558594 C 155.296875 -121.832031 153.347656 -123.78125 151.070312 -123.78125 L 140.675781 -123.78125 C 138.402344 -123.78125 136.453125 -125.730469 136.453125 -128.003906 L 136.453125 -135.152344 C 136.453125 -137.425781 134.503906 -139.375 132.230469 -139.375 L 121.832031 -139.375 C 119.558594 -139.375 117.609375 -141.324219 117.609375 -143.597656 L 117.609375 -150.421875 C 117.609375 -152.695312 115.660156 -154.644531 113.386719 -154.644531 L 46.457031 -154.644531 C 44.183594 -154.644531 42.234375 -152.695312 42.234375 -150.421875 L 42.234375 -143.597656 C 42.234375 -141.324219 40.285156 -139.375 38.011719 -139.375 L 27.617188 -139.375 C 25.339844 -139.375 23.390625 -137.425781 23.390625 -135.152344 L 23.390625 -128.003906 C 23.390625 -125.730469 21.441406 -123.78125 19.167969 -123.78125 L 8.773438 -123.78125 C 6.496094 -123.78125 4.546875 -121.832031 4.546875 -119.558594 Z M 4.546875 57.828125 "/></g></g></g><g fill="#d75623" fill-opacity="1"><g transform="translate(675.633344, 324.558233)"><g/></g></g><g fill="#d75623" fill-opacity="1"><g transform="translate(773.41117, 324.558233)"><g/></g></g><g fill="#d75623" fill-opacity="1"><g transform="translate(871.20891, 324.558233)"><g><path d="M 4.546875 -4.222656 C 4.546875 -1.949219 6.496094 0 8.773438 0 L 38.011719 0 C 40.285156 0 42.234375 -1.949219 42.234375 -4.222656 L 42.234375 -119.558594 C 42.234375 -121.832031 44.183594 -123.78125 46.457031 -123.78125 L 113.386719 -123.78125 C 115.660156 -123.78125 117.609375 -125.730469 117.609375 -128.003906 L 117.609375 -150.421875 C 117.609375 -152.695312 115.660156 -154.644531 113.386719 -154.644531 L 46.457031 -154.644531 C 44.183594 -154.644531 42.234375 -152.695312 42.234375 -150.421875 L 42.234375 -143.597656 C 42.234375 -141.324219 40.285156 -139.375 38.011719 -139.375 L 27.617188 -139.375 C 25.339844 -139.375 23.390625 -137.425781 23.390625 -135.152344 L 23.390625 -128.003906 C 23.390625 -125.730469 21.441406 -123.78125 19.167969 -123.78125 L 8.773438 -123.78125 C 6.496094 -123.78125 4.546875 -121.832031 4.546875 -119.558594 Z M 4.546875 -4.222656 "/></g></g></g><g fill="#d75623" fill-opacity="1"><g transform="translate(1011.214132, 324.558233)"><g><path d="M 75.699219 0 C 77.972656 0 79.921875 -1.949219 79.921875 -4.222656 L 79.921875 -11.371094 C 79.921875 -13.644531 81.871094 -15.59375 84.144531 -15.59375 L 94.542969 -15.59375 C 96.816406 -15.59375 98.765625 -17.542969 98.765625 -19.816406 L 98.765625 -26.640625 C 98.765625 -28.914062 100.714844 -30.863281 102.988281 -30.863281 L 113.386719 -30.863281 C 115.660156 -30.863281 117.609375 -32.8125 117.609375 -35.085938 L 117.609375 -150.421875 C 117.609375 -152.695312 115.660156 -154.644531 113.386719 -154.644531 L 84.144531 -154.644531 C 81.871094 -154.644531 79.921875 -152.695312 79.921875 -150.421875 L 79.921875 -35.085938 C 79.921875 -32.8125 77.972656 -30.863281 75.699219 -30.863281 L 8.773438 -30.863281 C 6.496094 -30.863281 4.546875 -28.914062 4.546875 -26.640625 L 4.546875 -4.222656 C 4.546875 -1.949219 6.496094 0 8.773438 0 Z M 75.699219 0 "/></g></g></g></g></g></g><g clip-path="url(#1872047008)"><g transform="matrix(1, 0, 0, 1, 472, 397)"><g clip-path="url(#f3e16ecb21)"><g fill="#d75623" fill-opacity="1"><g transform="translate(1.111347, 48.413179)"><g><path d="M 9.484375 -14.234375 C 9.640625 -13.597656 9.71875 -12.804688 9.71875 -11.859375 C 9.71875 -10.953125 9.640625 -10.160156 9.484375 -9.484375 C 9.640625 -8.847656 9.71875 -8.054688 9.71875 -7.109375 C 9.71875 -6.203125 9.640625 -5.414062 9.484375 -4.75 L 18.96875 -4.75 C 19.132812 -4.113281 19.21875 -3.320312 19.21875 -2.375 C 19.21875 -1.46875 19.132812 -0.675781 18.96875 0 L 4.75 0 C 4.582031 -0.675781 4.5 -1.46875 4.5 -2.375 C 4.5 -3.320312 4.582031 -4.113281 4.75 -4.75 C 4.582031 -5.414062 4.5 -6.203125 4.5 -7.109375 C 4.5 -8.054688 4.582031 -8.847656 4.75 -9.484375 C 4.582031 -10.160156 4.5 -10.953125 4.5 -11.859375 C 4.5 -12.804688 4.582031 -13.597656 4.75 -14.234375 C 4.582031 -14.898438 4.5 -15.691406 4.5 -16.609375 C 4.5 -17.554688 4.582031 -18.34375 4.75 -18.96875 C 4.582031 -19.644531 4.5 -20.4375 4.5 -21.34375 C 4.5 -22.289062 4.582031 -23.082031 4.75 -23.71875 C 4.582031 -24.394531 4.5 -25.1875 4.5 -26.09375 C 4.5 -27.039062 4.582031 -27.832031 4.75 -28.46875 C 4.582031 -29.132812 4.5 -29.921875 4.5 -30.828125 C 4.5 -31.773438 4.582031 -32.566406 4.75 -33.203125 L 18.96875 -33.203125 C 19.132812 -32.566406 19.21875 -31.773438 19.21875 -30.828125 C 19.21875 -29.921875 19.132812 -29.132812 18.96875 -28.46875 L 9.484375 -28.46875 C 9.640625 -27.832031 9.71875 -27.039062 9.71875 -26.09375 C 9.71875 -25.1875 9.640625 -24.394531 9.484375 -23.71875 C 9.640625 -23.082031 9.71875 -22.289062 9.71875 -21.34375 C 9.71875 -20.4375 9.640625 -19.644531 9.484375 -18.96875 L 18.96875 -18.96875 C 19.132812 -18.34375 19.21875 -17.554688 19.21875 -16.609375 C 19.21875 -15.691406 19.132812 -14.898438 18.96875 -14.234375 Z M 9.484375 -14.234375 "/></g></g></g><g fill="#d75623" fill-opacity="1"><g transform="translate(24.831781, 48.413179)"><g><path d="M 21.34375 -14.234375 C 21.5 -13.597656 21.578125 -12.804688 21.578125 -11.859375 C 21.578125 -10.953125 21.5 -10.160156 21.34375 -9.484375 C 21.5 -8.847656 21.578125 -8.054688 21.578125 -7.109375 C 21.578125 -6.203125 21.5 -5.414062 21.34375 -4.75 L 18.96875 -4.75 C 19.132812 -4.113281 19.21875 -3.320312 19.21875 -2.375 C 19.21875 -1.46875 19.132812 -0.675781 18.96875 0 L 4.75 0 C 4.582031 -0.675781 4.5 -1.46875 4.5 -2.375 C 4.5 -3.320312 4.582031 -4.113281 4.75 -4.75 L 2.375 -4.75 C 2.21875 -5.414062 2.140625 -6.203125 2.140625 -7.109375 C 2.140625 -8.054688 2.21875 -8.847656 2.375 -9.484375 L 7.109375 -9.484375 C 7.273438 -8.847656 7.359375 -8.054688 7.359375 -7.109375 C 7.359375 -6.203125 7.273438 -5.414062 7.109375 -4.75 L 16.609375 -4.75 C 16.441406 -5.414062 16.359375 -6.203125 16.359375 -7.109375 C 16.359375 -8.054688 16.441406 -8.847656 16.609375 -9.484375 C 16.441406 -10.160156 16.359375 -10.953125 16.359375 -11.859375 C 16.359375 -12.804688 16.441406 -13.597656 16.609375 -14.234375 L 4.75 -14.234375 C 4.582031 -14.898438 4.5 -15.691406 4.5 -16.609375 C 4.5 -17.554688 4.582031 -18.34375 4.75 -18.96875 L 2.375 -18.96875 C 2.21875 -19.644531 2.140625 -20.4375 2.140625 -21.34375 C 2.140625 -22.289062 2.21875 -23.082031 2.375 -23.71875 C 2.21875 -24.394531 2.140625 -25.1875 2.140625 -26.09375 C 2.140625 -27.039062 2.21875 -27.832031 2.375 -28.46875 L 4.75 -28.46875 C 4.582031 -29.132812 4.5 -29.921875 4.5 -30.828125 C 4.5 -31.773438 4.582031 -32.566406 4.75 -33.203125 L 18.96875 -33.203125 C 19.132812 -32.566406 19.21875 -31.773438 19.21875 -30.828125 C 19.21875 -29.921875 19.132812 -29.132812 18.96875 -28.46875 L 21.34375 -28.46875 C 21.5 -27.832031 21.578125 -27.039062 21.578125 -26.09375 C 21.578125 -25.1875 21.5 -24.394531 21.34375 -23.71875 L 16.609375 -23.71875 C 16.441406 -24.394531 16.359375 -25.1875 16.359375 -26.09375 C 16.359375 -27.039062 16.441406 -27.832031 16.609375 -28.46875 L 7.109375 -28.46875 C 7.273438 -27.832031 7.359375 -27.039062 7.359375 -26.09375 C 7.359375 -25.1875 7.273438 -24.394531 7.109375 -23.71875 C 7.273438 -23.082031 7.359375 -22.289062 7.359375 -21.34375 C 7.359375 -20.4375 7.273438 -19.644531 7.109375 -18.96875 L 18.96875 -18.96875 C 19.132812 -18.34375 19.21875 -17.554688 19.21875 -16.609375 C 19.21875 -15.691406 19.132812 -14.898438 18.96875 -14.234375 Z M 21.34375 -14.234375 "/></g></g></g><g fill="#d75623" fill-opacity="1"><g transform="translate(48.552216, 48.413179)"><g><path d="M 21.578125 -30.828125 C 21.578125 -29.921875 21.5 -29.132812 21.34375 -28.46875 L 14.234375 -28.46875 C 14.390625 -27.832031 14.46875 -27.039062 14.46875 -26.09375 C 14.46875 -25.1875 14.390625 -24.394531 14.234375 -23.71875 C 14.390625 -23.082031 14.46875 -22.289062 14.46875 -21.34375 C 14.46875 -20.4375 14.390625 -19.644531 14.234375 -18.96875 C 14.390625 -18.34375 14.46875 -17.554688 14.46875 -16.609375 C 14.46875 -15.691406 14.390625 -14.898438 14.234375 -14.234375 C 14.390625 -13.597656 14.46875 -12.804688 14.46875 -11.859375 C 14.46875 -10.953125 14.390625 -10.160156 14.234375 -9.484375 C 14.390625 -8.847656 14.46875 -8.054688 14.46875 -7.109375 C 14.46875 -6.203125 14.390625 -5.414062 14.234375 -4.75 C 14.390625 -4.113281 14.46875 -3.320312 14.46875 -2.375 C 14.46875 -1.46875 14.390625 -0.675781 14.234375 0 L 9.484375 0 C 9.328125 -0.675781 9.25 -1.46875 9.25 -2.375 C 9.25 -3.320312 9.328125 -4.113281 9.484375 -4.75 C 9.328125 -5.414062 9.25 -6.203125 9.25 -7.109375 C 9.25 -8.054688 9.328125 -8.847656 9.484375 -9.484375 C 9.328125 -10.160156 9.25 -10.953125 9.25 -11.859375 C 9.25 -12.804688 9.328125 -13.597656 9.484375 -14.234375 C 9.328125 -14.898438 9.25 -15.691406 9.25 -16.609375 C 9.25 -17.554688 9.328125 -18.34375 9.484375 -18.96875 C 9.328125 -19.644531 9.25 -20.4375 9.25 -21.34375 C 9.25 -22.289062 9.328125 -23.082031 9.484375 -23.71875 C 9.328125 -24.394531 9.25 -25.1875 9.25 -26.09375 C 9.25 -27.039062 9.328125 -27.832031 9.484375 -28.46875 L 2.375 -28.46875 C 2.21875 -29.132812 2.140625 -29.921875 2.140625 -30.828125 C 2.140625 -31.773438 2.21875 -32.566406 2.375 -33.203125 L 21.34375 -33.203125 C 21.5 -32.566406 21.578125 -31.773438 21.578125 -30.828125 Z M 21.578125 -30.828125 "/></g></g></g><g fill="#d75623" fill-opacity="1"><g transform="translate(72.272651, 48.413179)"><g/></g></g><g fill="#d75623" fill-opacity="1"><g transform="translate(95.993085, 48.413179)"><g><path d="M 20.390625 -21.34375 C 20.390625 -20.4375 20.3125 -19.644531 20.15625 -18.96875 L 17.203125 -18.96875 C 17.359375 -18.34375 17.4375 -17.554688 17.4375 -16.609375 C 17.4375 -15.691406 17.359375 -14.898438 17.203125 -14.234375 L 14.234375 -14.234375 C 14.390625 -13.597656 14.46875 -12.804688 14.46875 -11.859375 C 14.46875 -10.953125 14.390625 -10.160156 14.234375 -9.484375 L 11.265625 -9.484375 C 11.421875 -8.847656 11.5 -8.054688 11.5 -7.109375 C 11.5 -6.203125 11.421875 -5.414062 11.265625 -4.75 L 20.15625 -4.75 C 20.3125 -4.113281 20.390625 -3.320312 20.390625 -2.375 C 20.390625 -1.46875 20.3125 -0.675781 20.15625 0 L 3.5625 0 C 3.40625 -0.675781 3.328125 -1.46875 3.328125 -2.375 C 3.328125 -3.320312 3.40625 -4.113281 3.5625 -4.75 L 6.515625 -4.75 C 6.359375 -5.414062 6.28125 -6.203125 6.28125 -7.109375 C 6.28125 -8.054688 6.359375 -8.847656 6.515625 -9.484375 L 9.484375 -9.484375 C 9.328125 -10.160156 9.25 -10.953125 9.25 -11.859375 C 9.25 -12.804688 9.328125 -13.597656 9.484375 -14.234375 L 12.453125 -14.234375 C 12.296875 -14.898438 12.21875 -15.691406 12.21875 -16.609375 C 12.21875 -17.554688 12.296875 -18.34375 12.453125 -18.96875 L 15.421875 -18.96875 C 15.265625 -19.644531 15.1875 -20.4375 15.1875 -21.34375 C 15.1875 -22.289062 15.265625 -23.082031 15.421875 -23.71875 C 15.265625 -24.394531 15.1875 -25.1875 15.1875 -26.09375 C 15.1875 -27.039062 15.265625 -27.832031 15.421875 -28.46875 L 7.109375 -28.46875 C 7.273438 -27.832031 7.359375 -27.039062 7.359375 -26.09375 C 7.359375 -25.1875 7.273438 -24.394531 7.109375 -23.71875 L 3.5625 -23.71875 C 3.40625 -24.394531 3.328125 -25.1875 3.328125 -26.09375 C 3.328125 -27.039062 3.40625 -27.832031 3.5625 -28.46875 L 5.921875 -28.46875 C 5.765625 -29.132812 5.6875 -29.921875 5.6875 -30.828125 C 5.6875 -31.773438 5.765625 -32.566406 5.921875 -33.203125 L 17.78125 -33.203125 C 17.945312 -32.566406 18.03125 -31.773438 18.03125 -30.828125 C 18.03125 -29.921875 17.945312 -29.132812 17.78125 -28.46875 L 20.15625 -28.46875 C 20.3125 -27.832031 20.390625 -27.039062 20.390625 -26.09375 C 20.390625 -25.1875 20.3125 -24.394531 20.15625 -23.71875 C 20.3125 -23.082031 20.390625 -22.289062 20.390625 -21.34375 Z M 20.390625 -21.34375 "/></g></g></g><g fill="#d75623" fill-opacity="1"><g transform="translate(119.713513, 48.413179)"><g><path d="M 15.0625 -30.828125 C 15.0625 -29.921875 14.984375 -29.132812 14.828125 -28.46875 L 8.890625 -28.46875 C 8.734375 -29.132812 8.65625 -29.921875 8.65625 -30.828125 C 8.65625 -31.773438 8.734375 -32.566406 8.890625 -33.203125 L 14.828125 -33.203125 C 14.984375 -32.566406 15.0625 -31.773438 15.0625 -30.828125 Z M 8.890625 -9.484375 C 9.046875 -8.847656 9.125 -8.054688 9.125 -7.109375 C 9.125 -6.203125 9.046875 -5.414062 8.890625 -4.75 L 5.921875 -4.75 C 5.765625 -5.414062 5.6875 -6.203125 5.6875 -7.109375 C 5.6875 -8.054688 5.765625 -8.847656 5.921875 -9.484375 L 4.15625 -9.484375 C 3.988281 -10.160156 3.90625 -10.953125 3.90625 -11.859375 C 3.90625 -12.804688 3.988281 -13.597656 4.15625 -14.234375 C 3.988281 -14.898438 3.90625 -15.691406 3.90625 -16.609375 C 3.90625 -17.554688 3.988281 -18.34375 4.15625 -18.96875 C 3.988281 -19.644531 3.90625 -20.4375 3.90625 -21.34375 C 3.90625 -22.289062 3.988281 -23.082031 4.15625 -23.71875 L 5.921875 -23.71875 C 5.765625 -24.394531 5.6875 -25.1875 5.6875 -26.09375 C 5.6875 -27.039062 5.765625 -27.832031 5.921875 -28.46875 L 8.890625 -28.46875 C 9.046875 -27.832031 9.125 -27.039062 9.125 -26.09375 C 9.125 -25.1875 9.046875 -24.394531 8.890625 -23.71875 C 9.046875 -23.082031 9.125 -22.289062 9.125 -21.34375 C 9.125 -20.4375 9.046875 -19.644531 8.890625 -18.96875 C 9.046875 -18.34375 9.125 -17.554688 9.125 -16.609375 C 9.125 -15.691406 9.046875 -14.898438 8.890625 -14.234375 C 9.046875 -13.597656 9.125 -12.804688 9.125 -11.859375 C 9.125 -10.953125 9.046875 -10.160156 8.890625 -9.484375 Z M 19.5625 -18.96875 C 19.726562 -18.34375 19.8125 -17.554688 19.8125 -16.609375 C 19.8125 -15.691406 19.726562 -14.898438 19.5625 -14.234375 C 19.726562 -13.597656 19.8125 -12.804688 19.8125 -11.859375 C 19.8125 -10.953125 19.726562 -10.160156 19.5625 -9.484375 L 17.78125 -9.484375 C 17.945312 -8.847656 18.03125 -8.054688 18.03125 -7.109375 C 18.03125 -6.203125 17.945312 -5.414062 17.78125 -4.75 L 14.828125 -4.75 C 14.671875 -5.414062 14.59375 -6.203125 14.59375 -7.109375 C 14.59375 -8.054688 14.671875 -8.847656 14.828125 -9.484375 C 14.671875 -10.160156 14.59375 -10.953125 14.59375 -11.859375 C 14.59375 -12.804688 14.671875 -13.597656 14.828125 -14.234375 C 14.671875 -14.898438 14.59375 -15.691406 14.59375 -16.609375 C 14.59375 -17.554688 14.671875 -18.34375 14.828125 -18.96875 C 14.671875 -19.644531 14.59375 -20.4375 14.59375 -21.34375 C 14.59375 -22.289062 14.671875 -23.082031 14.828125 -23.71875 C 14.671875 -24.394531 14.59375 -25.1875 14.59375 -26.09375 C 14.59375 -27.039062 14.671875 -27.832031 14.828125 -28.46875 L 17.78125 -28.46875 C 17.945312 -27.832031 18.03125 -27.039062 18.03125 -26.09375 C 18.03125 -25.1875 17.945312 -24.394531 17.78125 -23.71875 L 19.5625 -23.71875 C 19.726562 -23.082031 19.8125 -22.289062 19.8125 -21.34375 C 19.8125 -20.4375 19.726562 -19.644531 19.5625 -18.96875 Z M 8.65625 -2.375 C 8.65625 -3.320312 8.734375 -4.113281 8.890625 -4.75 L 14.828125 -4.75 C 14.984375 -4.113281 15.0625 -3.320312 15.0625 -2.375 C 15.0625 -1.46875 14.984375 -0.675781 14.828125 0 L 8.890625 0 C 8.734375 -0.675781 8.65625 -1.46875 8.65625 -2.375 Z M 8.65625 -2.375 "/></g></g></g><g fill="#d75623" fill-opacity="1"><g transform="translate(143.433954, 48.413179)"><g><path d="M 20.390625 -21.34375 C 20.390625 -20.4375 20.3125 -19.644531 20.15625 -18.96875 L 17.203125 -18.96875 C 17.359375 -18.34375 17.4375 -17.554688 17.4375 -16.609375 C 17.4375 -15.691406 17.359375 -14.898438 17.203125 -14.234375 L 14.234375 -14.234375 C 14.390625 -13.597656 14.46875 -12.804688 14.46875 -11.859375 C 14.46875 -10.953125 14.390625 -10.160156 14.234375 -9.484375 L 11.265625 -9.484375 C 11.421875 -8.847656 11.5 -8.054688 11.5 -7.109375 C 11.5 -6.203125 11.421875 -5.414062 11.265625 -4.75 L 20.15625 -4.75 C 20.3125 -4.113281 20.390625 -3.320312 20.390625 -2.375 C 20.390625 -1.46875 20.3125 -0.675781 20.15625 0 L 3.5625 0 C 3.40625 -0.675781 3.328125 -1.46875 3.328125 -2.375 C 3.328125 -3.320312 3.40625 -4.113281 3.5625 -4.75 L 6.515625 -4.75 C 6.359375 -5.414062 6.28125 -6.203125 6.28125 -7.109375 C 6.28125 -8.054688 6.359375 -8.847656 6.515625 -9.484375 L 9.484375 -9.484375 C 9.328125 -10.160156 9.25 -10.953125 9.25 -11.859375 C 9.25 -12.804688 9.328125 -13.597656 9.484375 -14.234375 L 12.453125 -14.234375 C 12.296875 -14.898438 12.21875 -15.691406 12.21875 -16.609375 C 12.21875 -17.554688 12.296875 -18.34375 12.453125 -18.96875 L 15.421875 -18.96875 C 15.265625 -19.644531 15.1875 -20.4375 15.1875 -21.34375 C 15.1875 -22.289062 15.265625 -23.082031 15.421875 -23.71875 C 15.265625 -24.394531 15.1875 -25.1875 15.1875 -26.09375 C 15.1875 -27.039062 15.265625 -27.832031 15.421875 -28.46875 L 7.109375 -28.46875 C 7.273438 -27.832031 7.359375 -27.039062 7.359375 -26.09375 C 7.359375 -25.1875 7.273438 -24.394531 7.109375 -23.71875 L 3.5625 -23.71875 C 3.40625 -24.394531 3.328125 -25.1875 3.328125 -26.09375 C 3.328125 -27.039062 3.40625 -27.832031 3.5625 -28.46875 L 5.921875 -28.46875 C 5.765625 -29.132812 5.6875 -29.921875 5.6875 -30.828125 C 5.6875 -31.773438 5.765625 -32.566406 5.921875 -33.203125 L 17.78125 -33.203125 C 17.945312 -32.566406 18.03125 -31.773438 18.03125 -30.828125 C 18.03125 -29.921875 17.945312 -29.132812 17.78125 -28.46875 L 20.15625 -28.46875 C 20.3125 -27.832031 20.390625 -27.039062 20.390625 -26.09375 C 20.390625 -25.1875 20.3125 -24.394531 20.15625 -23.71875 C 20.3125 -23.082031 20.390625 -22.289062 20.390625 -21.34375 Z M 20.390625 -21.34375 "/></g></g></g><g fill="#d75623" fill-opacity="1"><g transform="translate(167.154395, 48.413179)"><g><path d="M 8.53125 -21.34375 C 8.53125 -20.4375 8.453125 -19.644531 8.296875 -18.96875 L 10.078125 -18.96875 C 10.234375 -18.34375 10.3125 -17.554688 10.3125 -16.609375 C 10.3125 -15.691406 10.234375 -14.898438 10.078125 -14.234375 L 3.5625 -14.234375 C 3.40625 -14.898438 3.328125 -15.691406 3.328125 -16.609375 C 3.328125 -17.554688 3.40625 -18.34375 3.5625 -18.96875 C 3.40625 -19.644531 3.328125 -20.4375 3.328125 -21.34375 C 3.328125 -22.289062 3.40625 -23.082031 3.5625 -23.71875 C 3.40625 -24.394531 3.328125 -25.1875 3.328125 -26.09375 C 3.328125 -27.039062 3.40625 -27.832031 3.5625 -28.46875 C 3.40625 -29.132812 3.328125 -29.921875 3.328125 -30.828125 C 3.328125 -31.773438 3.40625 -32.566406 3.5625 -33.203125 L 19.5625 -33.203125 C 19.726562 -32.566406 19.8125 -31.773438 19.8125 -30.828125 C 19.8125 -29.921875 19.726562 -29.132812 19.5625 -28.46875 L 8.296875 -28.46875 C 8.453125 -27.832031 8.53125 -27.039062 8.53125 -26.09375 C 8.53125 -25.1875 8.453125 -24.394531 8.296875 -23.71875 C 8.453125 -23.082031 8.53125 -22.289062 8.53125 -21.34375 Z M 21.578125 -11.859375 C 21.578125 -10.953125 21.5 -10.160156 21.34375 -9.484375 L 19.5625 -9.484375 C 19.726562 -8.847656 19.8125 -8.054688 19.8125 -7.109375 C 19.8125 -6.203125 19.726562 -5.414062 19.5625 -4.75 L 16.609375 -4.75 C 16.765625 -4.113281 16.84375 -3.320312 16.84375 -2.375 C 16.84375 -1.46875 16.765625 -0.675781 16.609375 0 L 5.921875 0 C 5.765625 -0.675781 5.6875 -1.46875 5.6875 -2.375 C 5.6875 -3.320312 5.765625 -4.113281 5.921875 -4.75 L 3.5625 -4.75 C 3.40625 -5.414062 3.328125 -6.203125 3.328125 -7.109375 C 3.328125 -8.054688 3.40625 -8.847656 3.5625 -9.484375 L 7.109375 -9.484375 C 7.273438 -8.847656 7.359375 -8.054688 7.359375 -7.109375 C 7.359375 -6.203125 7.273438 -5.414062 7.109375 -4.75 L 14.828125 -4.75 C 14.671875 -5.414062 14.59375 -6.203125 14.59375 -7.109375 C 14.59375 -8.054688 14.671875 -8.847656 14.828125 -9.484375 L 16.609375 -9.484375 C 16.441406 -10.160156 16.359375 -10.953125 16.359375 -11.859375 C 16.359375 -12.804688 16.441406 -13.597656 16.609375 -14.234375 L 14.828125 -14.234375 C 14.671875 -14.898438 14.59375 -15.691406 14.59375 -16.609375 C 14.59375 -17.554688 14.671875 -18.34375 14.828125 -18.96875 L 10.078125 -18.96875 C 9.921875 -19.644531 9.84375 -20.4375 9.84375 -21.34375 C 9.84375 -22.289062 9.921875 -23.082031 10.078125 -23.71875 L 16.609375 -23.71875 C 16.765625 -23.082031 16.84375 -22.289062 16.84375 -21.34375 C 16.84375 -20.4375 16.765625 -19.644531 16.609375 -18.96875 L 19.5625 -18.96875 C 19.726562 -18.34375 19.8125 -17.554688 19.8125 -16.609375 C 19.8125 -15.691406 19.726562 -14.898438 19.5625 -14.234375 L 21.34375 -14.234375 C 21.5 -13.597656 21.578125 -12.804688 21.578125 -11.859375 Z M 21.578125 -11.859375 "/></g></g></g></g></g></g></g></g></svg>